<svg id="question-mark-draw-svgrepo-com" xmlns="http://www.w3.org/2000/svg" width="9.334" height="14.42" viewBox="0 0 9.334 14.42">
  <path id="Path_137104" data-name="Path 137104" d="M58.932,4.1V4.062C58.932,1.547,56.939,0,54.1,0a6.872,6.872,0,0,0-3.988,1.178,1.363,1.363,0,0,0-.217,1.915l.324.428a1.441,1.441,0,0,0,1.886.286,3.652,3.652,0,0,1,1.743-.5c.928,0,1.451.406,1.451,1.064v.019c0,.832-.793,2.021-3.037,2.214l-.077.087A6.191,6.191,0,0,0,52.3,8.1l.089.594a1.506,1.506,0,0,0,1.367,1.318c.646,0,1.222-.277,1.286-.619l.116-.619A4.72,4.72,0,0,0,58.932,4.1Z" transform="translate(-49.598)" fill="#fff"/>
  <path id="Path_137105" data-name="Path 137105" d="M93.76,217.1a1.333,1.333,0,0,0-1.333,1.333v.622a1.333,1.333,0,0,0,1.333,1.333H94.9a1.333,1.333,0,0,0,1.333-1.333v-.622A1.333,1.333,0,0,0,94.9,217.1Z" transform="translate(-90.231 -205.964)" fill="#fff"/>
</svg>
